<svg width="661" height="481" viewBox="0 0 661 481" fill="none" xmlns="http://www.w3.org/2000/svg">
    <path
        d="M320.6 10.2001C291.4 41.8001 265.9 79.1001 244.7 121.3L236.8 137.1L254.3 154.3C263.9 163.8 275.9 176.4 281 182.5C286.1 188.5 290.8 194.1 291.5 194.8C292.5 196 296.1 192.8 311.6 177L330.5 157.9L342.1 169.2C348.5 175.4 356.9 184 360.9 188.4L368 196.2L370.3 193.4C379.9 181 396.5 163.3 414.1 146.6L424.4 136.8L415.2 118.6C399.8 88.2001 381.5 59.5001 361.7 34.7001C351.4 21.9001 332 7.03186e-05 330.9 7.03186e-05C330.5 7.03186e-05 325.9 4.60007 320.6 10.2001Z"
        fill="#151515" />
    <path
        d="M144 107.7C140.5 115.3 135.3 127.4 132.4 134.6C126.9 148.3 116.3 179.9 115.8 184.2C115.5 186.4 117.1 187.9 127.5 195.5C160.7 219.7 191.4 249.3 215.6 280C221.6 287.6 226.8 293.9 227.2 293.9C227.5 294 230.3 289.3 233.4 283.6C245.2 261.4 259.2 239.6 274.7 219.3C279.8 212.6 284 206.7 284 206.4C284 205.4 269 187.8 258.2 176.1C239.2 155.6 212.7 133 188 116.4C175.5 107.9 152.4 94 150.9 94C150.6 94 147.4 100.2 144 107.7Z"
        fill="#151515" />
    <path
        d="M505.5 95.8C503.9 96.8 496.9 101 490 105.1C463.4 120.9 435.7 142.6 412.3 165.9C398.7 179.5 379.6 200.9 377.8 204.6C376.9 206.5 377.7 208 383.7 215.6C399.3 235.5 419.1 266.3 428.9 285.8C431.2 290.4 433.5 294 433.9 293.8C434.4 293.6 438.5 288.8 443 283C467.8 251.7 497.1 222.9 527.2 200.3C533 195.9 539.5 191.2 541.5 190C546 187.2 546 187.3 538.8 165.1C530.7 139.9 512.1 95.2 509.4 94.3C508.9 94.2 507.2 94.8 505.5 95.8Z"
        fill="#151515" />
    <path
        d="M29.0001 166.7C13.2001 210.5 4.3001 256 0.600098 313L0.100098 320.5L7.1001 329C49.3001 379.8 105.6 422 165 447.3C181.3 454.2 179.4 454.9 181.4 441.3C187.1 402.7 199.2 359.6 214 325C217.4 317 220.4 309.8 220.6 309C220.9 308.2 217.7 303.1 213.5 297.5C169.6 239.4 111.4 192.4 48.5001 164.3C40.8001 160.8 34.0001 158 33.3001 158C32.7001 158 30.8001 161.9 29.0001 166.7Z"
        fill="#151515" />
    <path
        d="M619.5 161.1C597.2 170.6 565.1 188.6 545 203C509.6 228.2 474.3 262.4 448.5 296.5L440 307.7L444.9 319.1C451.7 335 459.2 355.3 463.5 369.5C470.6 392.9 478.9 430.6 480.7 447.2C481 450.4 481.6 453 482.1 453C485.8 453 526.1 433.5 543.2 423.3C587.3 397.3 630.4 359.7 659.8 321.8C662.3 318.7 658 273.3 652.4 242.5C647 212.7 631.3 158.8 627.9 158.3C627.1 158.2 623.4 159.5 619.5 161.1Z"
        fill="#151515" />
    <path
        d="M319 187.2C261 247.5 220.4 322.9 201.1 406.6C198.6 417.5 196.9 426.8 192.4 454.7L191.9 457.9L203.2 461.5C227.1 469.2 253.3 475 281.5 478.7C301.7 481.3 359.4 481.3 379.5 478.7C408 474.9 433.8 469.3 456.4 462L469.1 457.9L468.5 453.2C456.1 361.7 420.1 278.6 363.6 211C352.6 197.9 332.2 176 330.8 176C330.3 176 325 181.1 319 187.2Z"
        fill="#151515" />
</svg>